<svg width="10" height="10" viewBox="0 0 10 10" fill="none" xmlns="http://www.w3.org/2000/svg">
<path fill-rule="evenodd" clip-rule="evenodd" d="M9.24265 0.757371C9.63318 1.14789 9.63318 1.78106 9.24265 2.17158L6.41423 5.00001L9.24265 7.82844C9.63318 8.21896 9.63318 8.85213 9.24265 9.24265C8.85213 9.63318 8.21896 9.63318 7.82844 9.24265L5.00001 6.41423L2.17158 9.24265C1.78106 9.63318 1.1479 9.63318 0.757371 9.24265C0.366847 8.85213 0.366847 8.21896 0.757371 7.82844L3.5858 5.00001L0.757371 2.17159C0.366846 1.78106 0.366846 1.1479 0.757371 0.757372C1.14789 0.366848 1.78106 0.366848 2.17158 0.757372L5.00001 3.5858L7.82844 0.757371C8.21896 0.366846 8.85213 0.366846 9.24265 0.757371Z" fill="black"/>
</svg>
